<?xml version="1.0" encoding="UTF-8" standalone="no"?>
<!-- Created with Inkscape (http://www.inkscape.org/) -->

<svg
   xmlns:dc="http://purl.org/dc/elements/1.1/"
   xmlns:cc="http://creativecommons.org/ns#"
   xmlns:rdf="http://www.w3.org/1999/02/22-rdf-syntax-ns#"
   xmlns:svg="http://www.w3.org/2000/svg"
   xmlns="http://www.w3.org/2000/svg"
   xmlns:sodipodi="http://sodipodi.sourceforge.net/DTD/sodipodi-0.dtd"
   xmlns:inkscape="http://www.inkscape.org/namespaces/inkscape"
   width="531.49603"
   height="637.79529"
   id="svg6509"
   version="1.1"
   inkscape:version="0.48.1 r9760"
   sodipodi:docname="3-1.svg"
   inkscape:export-filename="/home/grapland/gd/jimmyhonester/doc/src/3-1.png"
   inkscape:export-xdpi="300"
   inkscape:export-ydpi="300">
  <defs
     id="defs6511" />
  <sodipodi:namedview
     id="base"
     pagecolor="#ffffff"
     bordercolor="#666666"
     borderopacity="1.0"
     inkscape:pageopacity="1"
     inkscape:pageshadow="2"
     inkscape:zoom="1.06"
     inkscape:cx="420.6484"
     inkscape:cy="323.63867"
     inkscape:document-units="px"
     inkscape:current-layer="layer1"
     showgrid="false"
     units="cm"
     inkscape:window-width="1280"
     inkscape:window-height="747"
     inkscape:window-x="0"
     inkscape:window-y="26"
     inkscape:window-maximized="1" />
  <metadata
     id="metadata6514">
    <rdf:RDF>
      <cc:Work
         rdf:about="">
        <dc:format>image/svg+xml</dc:format>
        <dc:type
           rdf:resource="http://purl.org/dc/dcmitype/StillImage" />
        <dc:title />
      </cc:Work>
    </rdf:RDF>
  </metadata>
  <g
     inkscape:label="Layer 1"
     inkscape:groupmode="layer"
     id="layer1"
     transform="translate(0,-414.56559)">
    <g
       transform="matrix(0.75231281,0,0,0.75231281,-1103.9102,2568.9703)"
       id="node116"
       class="node">
      <title
         id="title2063">B_2096849817_1904_0</title>
      <polygon
         style="fill:#cccccc;stroke:#cccccc"
         points="1600,-2824 1642,-2824 1654,-2836 1654,-2848 1642,-2860 1642,-2860 1600,-2860 1588,-2848 1588,-2836 "
         id="polygon2065" />
      <path
         style="fill:#cccccc;stroke:#cccccc"
         inkscape:connector-curvature="0"
         d="m 1600,-2860 c -6,0 -12,6 -12,12"
         id="path2067" />
      <path
         style="fill:#cccccc;stroke:#cccccc"
         inkscape:connector-curvature="0"
         d="m 1588,-2836 c 0,6 6,12 12,12"
         id="path2069" />
      <path
         style="fill:#cccccc;stroke:#cccccc"
         inkscape:connector-curvature="0"
         d="m 1642,-2824 c 6,0 12,-6 12,-12"
         id="path2071" />
      <path
         style="fill:#cccccc;stroke:#cccccc"
         inkscape:connector-curvature="0"
         d="m 1654,-2848 c 0,-6 -6,-12 -12,-12"
         id="path2073" />
      <polyline
         style="fill:none;stroke:#000000"
         points="1642,-2860 1600,-2860 "
         id="polyline2075" />
      <path
         style="fill:none;stroke:#000000"
         inkscape:connector-curvature="0"
         d="m 1600,-2860 c -6,0 -12,6 -12,12"
         id="path2077" />
      <polyline
         style="fill:none;stroke:#000000"
         points="1588,-2848 1588,-2836 "
         id="polyline2079" />
      <path
         style="fill:none;stroke:#000000"
         inkscape:connector-curvature="0"
         d="m 1588,-2836 c 0,6 6,12 12,12"
         id="path2081" />
      <polyline
         style="fill:none;stroke:#000000"
         points="1600,-2824 1642,-2824 "
         id="polyline2083" />
      <path
         style="fill:none;stroke:#000000"
         inkscape:connector-curvature="0"
         d="m 1642,-2824 c 6,0 12,-6 12,-12"
         id="path2085" />
      <polyline
         style="fill:none;stroke:#000000"
         points="1654,-2836 1654,-2848 "
         id="polyline2087" />
      <path
         style="fill:none;stroke:#000000"
         inkscape:connector-curvature="0"
         d="m 1654,-2848 c 0,-6 -6,-12 -12,-12"
         id="path2089" />
      <text
         style="font-size:14px;text-anchor:start;font-family:'Times,serif'"
         x="1596.5"
         y="-2839.3"
         font-size="14.00"
         id="text2091">_entry_</text>
    </g>
    <g
       transform="matrix(0.75231281,0,0,0.75231281,-1103.9102,2568.9703)"
       id="node118"
       class="node">
      <title
         id="title2094">B_2096849817_1904_1</title>
      <polygon
         style="fill:#98fb98;stroke:#98fb98"
         points="1632.41,-2701.7 1723.59,-2731.3 1723.59,-2738.7 1632.41,-2768.3 1609.59,-2768.3 1609.59,-2768.3 1518.41,-2738.7 1518.41,-2731.3 1609.59,-2701.7 "
         id="polygon2096" />
      <path
         style="fill:#98fb98;stroke:#98fb98"
         inkscape:connector-curvature="0"
         d="m 1518.41,-2738.7 c -5.7,1.85 -5.7,5.55 0,7.4"
         id="path2098" />
      <path
         style="fill:#98fb98;stroke:#98fb98"
         inkscape:connector-curvature="0"
         d="m 1609.59,-2701.7 c 5.7,1.85 17.12,1.85 22.82,0"
         id="path2100" />
      <path
         style="fill:#98fb98;stroke:#98fb98"
         inkscape:connector-curvature="0"
         d="m 1723.59,-2731.3 c 5.7,-1.85 5.7,-5.55 0,-7.4"
         id="path2102" />
      <path
         style="fill:#98fb98;stroke:#98fb98"
         inkscape:connector-curvature="0"
         d="m 1632.41,-2768.3 c -5.7,-1.85 -17.12,-1.85 -22.82,0"
         id="path2104" />
      <polyline
         style="fill:none;stroke:#006400"
         points="1609.59,-2768.3 1518.41,-2738.7 "
         id="polyline2106" />
      <path
         style="fill:none;stroke:#006400"
         inkscape:connector-curvature="0"
         d="m 1518.41,-2738.7 c -5.7,1.85 -5.7,5.55 0,7.4"
         id="path2108" />
      <polyline
         style="fill:none;stroke:#006400"
         points="1518.41,-2731.3 1609.59,-2701.7 "
         id="polyline2110" />
      <path
         style="fill:none;stroke:#006400"
         inkscape:connector-curvature="0"
         d="m 1609.59,-2701.7 c 5.7,1.85 17.12,1.85 22.82,0"
         id="path2112" />
      <polyline
         style="fill:none;stroke:#006400"
         points="1632.41,-2701.7 1723.59,-2731.3 "
         id="polyline2114" />
      <path
         style="fill:none;stroke:#006400"
         inkscape:connector-curvature="0"
         d="m 1723.59,-2731.3 c 5.7,-1.85 5.7,-5.55 0,-7.4"
         id="path2116" />
      <polyline
         style="fill:none;stroke:#006400"
         points="1723.59,-2738.7 1632.41,-2768.3 "
         id="polyline2118" />
      <path
         style="fill:none;stroke:#006400"
         inkscape:connector-curvature="0"
         d="m 1632.41,-2768.3 c -5.7,-1.85 -17.12,-1.85 -22.82,0"
         id="path2120" />
      <text
         style="font-size:14px;text-anchor:start;font-family:'Times,serif'"
         x="1572.5"
         y="-2739.3"
         font-size="14.00"
         id="text2122"> Lines: 107...108</text>
      <text
         style="font-size:14px;text-anchor:start;font-family:'Times,serif'"
         x="1575"
         y="-2725.3"
         font-size="14.00"
         id="text2124">Count: 9826627</text>
    </g>
    <g
       transform="matrix(0.75231281,0,0,0.75231281,-1103.9102,2568.9703)"
       id="edge127"
       class="edge">
      <title
         id="title2127">B_2096849817_1904_0-&gt;B_2096849817_1904_1</title>
      <path
         style="fill:none;stroke:#006400"
         inkscape:connector-curvature="0"
         d="m 1621,-2823.66 c 0,11.36 0,26.78 0,41.52"
         id="path2129" />
      <polygon
         style="fill:#006400;stroke:#006400"
         points="1624.5,-2782.1 1624.5,-2782.1 1621,-2772.1 1617.5,-2782.1 "
         id="polygon2131" />
      <text
         style="font-size:14px;text-anchor:middle;font-family:'Times,serif'"
         x="1645"
         y="-2794.3"
         font-size="14.00"
         id="text2133">9826627</text>
    </g>
    <g
       transform="matrix(0.75231281,0,0,0.75231281,-1103.9102,2568.9703)"
       id="node120"
       class="node">
      <title
         id="title2136">B_2096849817_1904_2</title>
      <polygon
         style="fill:#98fb98;stroke:#98fb98"
         points="1481.75,-2516.5 1566.25,-2516.5 1578.25,-2528.5 1578.25,-2541.5 1566.25,-2553.5 1566.25,-2553.5 1481.75,-2553.5 1469.75,-2541.5 1469.75,-2528.5 "
         id="polygon2138" />
      <path
         style="fill:#98fb98;stroke:#98fb98"
         inkscape:connector-curvature="0"
         d="m 1481.75,-2553.5 c -6,0 -12,6 -12,12"
         id="path2140" />
      <path
         style="fill:#98fb98;stroke:#98fb98"
         inkscape:connector-curvature="0"
         d="m 1469.75,-2528.5 c 0,6 6,12 12,12"
         id="path2142" />
      <path
         style="fill:#98fb98;stroke:#98fb98"
         inkscape:connector-curvature="0"
         d="m 1566.25,-2516.5 c 6,0 12,-6 12,-12"
         id="path2144" />
      <path
         style="fill:#98fb98;stroke:#98fb98"
         inkscape:connector-curvature="0"
         d="m 1578.25,-2541.5 c 0,-6 -6,-12 -12,-12"
         id="path2146" />
      <polyline
         style="fill:none;stroke:#006400"
         points="1566.25,-2553.5 1481.75,-2553.5 "
         id="polyline2148" />
      <path
         style="fill:none;stroke:#006400"
         inkscape:connector-curvature="0"
         d="m 1481.75,-2553.5 c -6,0 -12,6 -12,12"
         id="path2150" />
      <polyline
         style="fill:none;stroke:#006400"
         points="1469.75,-2541.5 1469.75,-2528.5 "
         id="polyline2152" />
      <path
         style="fill:none;stroke:#006400"
         inkscape:connector-curvature="0"
         d="m 1469.75,-2528.5 c 0,6 6,12 12,12"
         id="path2154" />
      <polyline
         style="fill:none;stroke:#006400"
         points="1481.75,-2516.5 1566.25,-2516.5 "
         id="polyline2156" />
      <path
         style="fill:none;stroke:#006400"
         inkscape:connector-curvature="0"
         d="m 1566.25,-2516.5 c 6,0 12,-6 12,-12"
         id="path2158" />
      <polyline
         style="fill:none;stroke:#006400"
         points="1578.25,-2528.5 1578.25,-2541.5 "
         id="polyline2160" />
      <path
         style="fill:none;stroke:#006400"
         inkscape:connector-curvature="0"
         d="m 1578.25,-2541.5 c 0,-6 -6,-12 -12,-12"
         id="path2162" />
      <text
         style="font-size:14px;text-anchor:start;font-family:'Times,serif'"
         x="1493.5"
         y="-2539.3"
         font-size="14.00"
         id="text2164"> Line: 108</text>
      <text
         style="font-size:14px;text-anchor:start;font-family:'Times,serif'"
         x="1478"
         y="-2525.3"
         font-size="14.00"
         id="text2166">Count: 3275384</text>
    </g>
    <g
       transform="matrix(0.75231281,0,0,0.75231281,-1103.9102,2568.9703)"
       id="edge129"
       class="edge">
      <title
         id="title2169">B_2096849817_1904_1-&gt;B_2096849817_1904_2</title>
      <path
         style="fill:none;stroke:#006400"
         inkscape:connector-curvature="0"
         d="m 1590.49,-2707.66 c -16.67,16.11 -36.17,38.11 -47.49,61.66 -12.54,26.09 -16.92,59.17 -18.38,82.21"
         id="path2171" />
      <polygon
         style="fill:#006400;stroke:#006400"
         points="1528.1,-2563.48 1528.1,-2563.48 1524.12,-2553.66 1521.11,-2563.82 "
         id="polygon2173" />
      <text
         style="font-size:14px;text-anchor:middle;font-family:'Times,serif'"
         x="1589"
         y="-2668.3"
         font-size="14.00"
         id="text2175">3275384</text>
    </g>
    <g
       transform="matrix(0.75231281,0,0,0.75231281,-1103.9102,2568.9703)"
       id="node122"
       class="node">
      <title
         id="title2178">B_2096849817_1904_3</title>
      <polygon
         style="fill:#98fb98;stroke:#98fb98"
         points="1672.36,-2575.86 1758.64,-2605.14 1758.64,-2612.86 1672.36,-2642.14 1649.64,-2642.14 1649.64,-2642.14 1563.36,-2612.86 1563.36,-2605.14 1649.64,-2575.86 "
         id="polygon2180" />
      <path
         style="fill:#98fb98;stroke:#98fb98"
         inkscape:connector-curvature="0"
         d="m 1563.36,-2612.86 c -5.68,1.93 -5.68,5.79 0,7.72"
         id="path2182" />
      <path
         style="fill:#98fb98;stroke:#98fb98"
         inkscape:connector-curvature="0"
         d="m 1649.64,-2575.86 c 5.68,1.93 17.04,1.93 22.72,0"
         id="path2184" />
      <path
         style="fill:#98fb98;stroke:#98fb98"
         inkscape:connector-curvature="0"
         d="m 1758.64,-2605.14 c 5.68,-1.93 5.68,-5.79 0,-7.72"
         id="path2186" />
      <path
         style="fill:#98fb98;stroke:#98fb98"
         inkscape:connector-curvature="0"
         d="m 1672.36,-2642.14 c -5.68,-1.93 -17.04,-1.93 -22.72,0"
         id="path2188" />
      <polyline
         style="fill:none;stroke:#006400"
         points="1649.64,-2642.14 1563.36,-2612.86 "
         id="polyline2190" />
      <path
         style="fill:none;stroke:#006400"
         inkscape:connector-curvature="0"
         d="m 1563.36,-2612.86 c -5.68,1.93 -5.68,5.79 0,7.72"
         id="path2192" />
      <polyline
         style="fill:none;stroke:#006400"
         points="1563.36,-2605.14 1649.64,-2575.86 "
         id="polyline2194" />
      <path
         style="fill:none;stroke:#006400"
         inkscape:connector-curvature="0"
         d="m 1649.64,-2575.86 c 5.68,1.93 17.04,1.93 22.72,0"
         id="path2196" />
      <polyline
         style="fill:none;stroke:#006400"
         points="1672.36,-2575.86 1758.64,-2605.14 "
         id="polyline2198" />
      <path
         style="fill:none;stroke:#006400"
         inkscape:connector-curvature="0"
         d="m 1758.64,-2605.14 c 5.68,-1.93 5.68,-5.79 0,-7.72"
         id="path2200" />
      <polyline
         style="fill:none;stroke:#006400"
         points="1758.64,-2612.86 1672.36,-2642.14 "
         id="polyline2202" />
      <path
         style="fill:none;stroke:#006400"
         inkscape:connector-curvature="0"
         d="m 1672.36,-2642.14 c -5.68,-1.93 -17.04,-1.93 -22.72,0"
         id="path2204" />
      <text
         style="font-size:14px;text-anchor:start;font-family:'Times,serif'"
         x="1630.5"
         y="-2613.3"
         font-size="14.00"
         id="text2206"> Line: 109</text>
      <text
         style="font-size:14px;text-anchor:start;font-family:'Times,serif'"
         x="1615"
         y="-2599.3"
         font-size="14.00"
         id="text2208">Count: 6551243</text>
    </g>
    <g
       transform="matrix(0.75231281,0,0,0.75231281,-1103.9102,2568.9703)"
       id="edge131"
       class="edge">
      <title
         id="title2211">B_2096849817_1904_1-&gt;B_2096849817_1904_3</title>
      <path
         style="fill:none;stroke:#006400"
         inkscape:connector-curvature="0"
         d="m 1631.61,-2701.1 c 4.83,14.98 10.61,32.88 15.76,48.83"
         id="path2213" />
      <polygon
         style="fill:#006400;stroke:#006400"
         points="1650.74,-2653.22 1650.74,-2653.22 1650.47,-2642.63 1644.07,-2651.07 "
         id="polygon2215" />
      <text
         style="font-size:14px;text-anchor:middle;font-family:'Times,serif'"
         x="1668"
         y="-2668.3"
         font-size="14.00"
         id="text2217">6551243</text>
    </g>
    <g
       transform="matrix(0.75231281,0,0,0.75231281,-1103.9102,2568.9703)"
       id="node124"
       class="node">
      <title
         id="title2220">B_2096849817_1904_8</title>
      <polygon
         style="fill:#98fb98;stroke:#98fb98"
         points="1596.75,-2146.5 1681.25,-2146.5 1693.25,-2158.5 1693.25,-2171.5 1681.25,-2183.5 1681.25,-2183.5 1596.75,-2183.5 1584.75,-2171.5 1584.75,-2158.5 "
         id="polygon2222" />
      <path
         style="fill:#98fb98;stroke:#98fb98"
         inkscape:connector-curvature="0"
         d="m 1596.75,-2183.5 c -6,0 -12,6 -12,12"
         id="path2224" />
      <path
         style="fill:#98fb98;stroke:#98fb98"
         inkscape:connector-curvature="0"
         d="m 1584.75,-2158.5 c 0,6 6,12 12,12"
         id="path2226" />
      <path
         style="fill:#98fb98;stroke:#98fb98"
         inkscape:connector-curvature="0"
         d="m 1681.25,-2146.5 c 6,0 12,-6 12,-12"
         id="path2228" />
      <path
         style="fill:#98fb98;stroke:#98fb98"
         inkscape:connector-curvature="0"
         d="m 1693.25,-2171.5 c 0,-6 -6,-12 -12,-12"
         id="path2230" />
      <polyline
         style="fill:none;stroke:#006400"
         points="1681.25,-2183.5 1596.75,-2183.5 "
         id="polyline2232" />
      <path
         style="fill:none;stroke:#006400"
         inkscape:connector-curvature="0"
         d="m 1596.75,-2183.5 c -6,0 -12,6 -12,12"
         id="path2234" />
      <polyline
         style="fill:none;stroke:#006400"
         points="1584.75,-2171.5 1584.75,-2158.5 "
         id="polyline2236" />
      <path
         style="fill:none;stroke:#006400"
         inkscape:connector-curvature="0"
         d="m 1584.75,-2158.5 c 0,6 6,12 12,12"
         id="path2238" />
      <polyline
         style="fill:none;stroke:#006400"
         points="1596.75,-2146.5 1681.25,-2146.5 "
         id="polyline2240" />
      <path
         style="fill:none;stroke:#006400"
         inkscape:connector-curvature="0"
         d="m 1681.25,-2146.5 c 6,0 12,-6 12,-12"
         id="path2242" />
      <polyline
         style="fill:none;stroke:#006400"
         points="1693.25,-2158.5 1693.25,-2171.5 "
         id="polyline2244" />
      <path
         style="fill:none;stroke:#006400"
         inkscape:connector-curvature="0"
         d="m 1693.25,-2171.5 c 0,-6 -6,-12 -12,-12"
         id="path2246" />
      <text
         style="font-size:14px;text-anchor:start;font-family:'Times,serif'"
         x="1608.5"
         y="-2169.3"
         font-size="14.00"
         id="text2248"> Line: 108</text>
      <text
         style="font-size:14px;text-anchor:start;font-family:'Times,serif'"
         x="1593"
         y="-2155.3"
         font-size="14.00"
         id="text2250">Count: 9826627</text>
    </g>
    <g
       transform="matrix(0.75231281,0,0,0.75231281,-1103.9102,2568.9703)"
       id="edge133"
       class="edge">
      <title
         id="title2253">B_2096849817_1904_2-&gt;B_2096849817_1904_8</title>
      <path
         style="fill:none;stroke:#006400"
         inkscape:connector-curvature="0"
         d="m 1520.29,-2516.15 c -5.71,30.85 -14.55,95.86 -0.29,148.15 18.98,69.62 68.74,139.69 97.55,176.2"
         id="path2255" />
      <polygon
         style="fill:#006400;stroke:#006400"
         points="1620.53,-2193.68 1620.53,-2193.68 1624.05,-2183.69 1615.07,-2189.31 "
         id="polygon2257" />
      <text
         style="font-size:14px;text-anchor:middle;font-family:'Times,serif'"
         x="1544"
         y="-2383.3"
         font-size="14.00"
         id="text2259">3275384</text>
    </g>
    <g
       transform="matrix(0.75231281,0,0,0.75231281,-1103.9102,2568.9703)"
       id="node126"
       class="node">
      <title
         id="title2262">B_2096849817_1904_4</title>
      <polygon
         style="fill:#98fb98;stroke:#98fb98"
         points="1589.75,-2368.5 1674.25,-2368.5 1686.25,-2380.5 1686.25,-2393.5 1674.25,-2405.5 1674.25,-2405.5 1589.75,-2405.5 1577.75,-2393.5 1577.75,-2380.5 "
         id="polygon2264" />
      <path
         style="fill:#98fb98;stroke:#98fb98"
         inkscape:connector-curvature="0"
         d="m 1589.75,-2405.5 c -6,0 -12,6 -12,12"
         id="path2266" />
      <path
         style="fill:#98fb98;stroke:#98fb98"
         inkscape:connector-curvature="0"
         d="m 1577.75,-2380.5 c 0,6 6,12 12,12"
         id="path2268" />
      <path
         style="fill:#98fb98;stroke:#98fb98"
         inkscape:connector-curvature="0"
         d="m 1674.25,-2368.5 c 6,0 12,-6 12,-12"
         id="path2270" />
      <path
         style="fill:#98fb98;stroke:#98fb98"
         inkscape:connector-curvature="0"
         d="m 1686.25,-2393.5 c 0,-6 -6,-12 -12,-12"
         id="path2272" />
      <polyline
         style="fill:none;stroke:#006400"
         points="1674.25,-2405.5 1589.75,-2405.5 "
         id="polyline2274" />
      <path
         style="fill:none;stroke:#006400"
         inkscape:connector-curvature="0"
         d="m 1589.75,-2405.5 c -6,0 -12,6 -12,12"
         id="path2276" />
      <polyline
         style="fill:none;stroke:#006400"
         points="1577.75,-2393.5 1577.75,-2380.5 "
         id="polyline2278" />
      <path
         style="fill:none;stroke:#006400"
         inkscape:connector-curvature="0"
         d="m 1577.75,-2380.5 c 0,6 6,12 12,12"
         id="path2280" />
      <polyline
         style="fill:none;stroke:#006400"
         points="1589.75,-2368.5 1674.25,-2368.5 "
         id="polyline2282" />
      <path
         style="fill:none;stroke:#006400"
         inkscape:connector-curvature="0"
         d="m 1674.25,-2368.5 c 6,0 12,-6 12,-12"
         id="path2284" />
      <polyline
         style="fill:none;stroke:#006400"
         points="1686.25,-2380.5 1686.25,-2393.5 "
         id="polyline2286" />
      <path
         style="fill:none;stroke:#006400"
         inkscape:connector-curvature="0"
         d="m 1686.25,-2393.5 c 0,-6 -6,-12 -12,-12"
         id="path2288" />
      <text
         style="font-size:14px;text-anchor:start;font-family:'Times,serif'"
         x="1601.5"
         y="-2391.3"
         font-size="14.00"
         id="text2290"> Line: 109</text>
      <text
         style="font-size:14px;text-anchor:start;font-family:'Times,serif'"
         x="1586"
         y="-2377.3"
         font-size="14.00"
         id="text2292">Count: 3275577</text>
    </g>
    <g
       transform="matrix(0.75231281,0,0,0.75231281,-1103.9102,2568.9703)"
       id="edge135"
       class="edge">
      <title
         id="title2295">B_2096849817_1904_3-&gt;B_2096849817_1904_4</title>
      <path
         style="fill:none;stroke:#006400"
         inkscape:connector-curvature="0"
         d="m 1654.35,-2574.07 c -1.2,6.64 -2.38,13.56 -3.35,20.07 -7.21,48.2 -13.14,104.63 -16.37,137.73"
         id="path2297" />
      <polygon
         style="fill:#006400;stroke:#006400"
         points="1638.09,-2415.61 1638.09,-2415.61 1633.65,-2405.99 1631.12,-2416.27 "
         id="polygon2299" />
      <text
         style="font-size:14px;text-anchor:middle;font-family:'Times,serif'"
         x="1675"
         y="-2531.3"
         font-size="14.00"
         id="text2301">3275577</text>
    </g>
    <g
       transform="matrix(0.75231281,0,0,0.75231281,-1103.9102,2568.9703)"
       id="node128"
       class="node">
      <title
         id="title2304">B_2096849817_1904_5</title>
      <polygon
         style="fill:#ffffb0;stroke:#ffffb0;stroke-width:4"
         points="1780.36,-2427.86 1866.64,-2457.14 1866.64,-2464.86 1780.36,-2494.14 1757.64,-2494.14 1757.64,-2494.14 1671.36,-2464.86 1671.36,-2457.14 1757.64,-2427.86 "
         id="polygon2306" />
      <path
         style="fill:#ffffb0;stroke:#ffffb0;stroke-width:4"
         inkscape:connector-curvature="0"
         d="m 1671.36,-2464.86 c -5.68,1.93 -5.68,5.79 0,7.72"
         id="path2308" />
      <path
         style="fill:#ffffb0;stroke:#ffffb0;stroke-width:4"
         inkscape:connector-curvature="0"
         d="m 1757.64,-2427.86 c 5.68,1.93 17.04,1.93 22.72,0"
         id="path2310" />
      <path
         style="fill:#ffffb0;stroke:#ffffb0;stroke-width:4"
         inkscape:connector-curvature="0"
         d="m 1866.64,-2457.14 c 5.68,-1.93 5.68,-5.79 0,-7.72"
         id="path2312" />
      <path
         style="fill:#ffffb0;stroke:#ffffb0;stroke-width:4"
         inkscape:connector-curvature="0"
         d="m 1780.36,-2494.14 c -5.68,-1.93 -17.04,-1.93 -22.72,0"
         id="path2314" />
      <polyline
         style="fill:none;stroke:#ffc125;stroke-width:4"
         points="1757.64,-2494.14 1671.36,-2464.86 "
         id="polyline2316" />
      <path
         style="fill:none;stroke:#ffc125;stroke-width:4"
         inkscape:connector-curvature="0"
         d="m 1671.36,-2464.86 c -5.68,1.93 -5.68,5.79 0,7.72"
         id="path2318" />
      <polyline
         style="fill:none;stroke:#ffc125;stroke-width:4"
         points="1671.36,-2457.14 1757.64,-2427.86 "
         id="polyline2320" />
      <path
         style="fill:none;stroke:#ffc125;stroke-width:4"
         inkscape:connector-curvature="0"
         d="m 1757.64,-2427.86 c 5.68,1.93 17.04,1.93 22.72,0"
         id="path2322" />
      <polyline
         style="fill:none;stroke:#ffc125;stroke-width:4"
         points="1780.36,-2427.86 1866.64,-2457.14 "
         id="polyline2324" />
      <path
         style="fill:none;stroke:#ffc125;stroke-width:4"
         inkscape:connector-curvature="0"
         d="m 1866.64,-2457.14 c 5.68,-1.93 5.68,-5.79 0,-7.72"
         id="path2326" />
      <polyline
         style="fill:none;stroke:#ffc125;stroke-width:4"
         points="1866.64,-2464.86 1780.36,-2494.14 "
         id="polyline2328" />
      <path
         style="fill:none;stroke:#ffc125;stroke-width:4"
         inkscape:connector-curvature="0"
         d="m 1780.36,-2494.14 c -5.68,-1.93 -17.04,-1.93 -22.72,0"
         id="path2330" />
      <text
         style="font-size:14px;text-anchor:start;font-family:'Times,serif'"
         x="1738.5"
         y="-2465.3"
         font-size="14.00"
         id="text2332"> Line: 110</text>
      <text
         style="font-size:14px;text-anchor:start;font-family:'Times,serif'"
         x="1723"
         y="-2451.3"
         font-size="14.00"
         id="text2334">Count: 3275666</text>
    </g>
    <g
       transform="matrix(0.75231281,0,0,0.75231281,-1103.9102,2568.9703)"
       id="edge137"
       class="edge">
      <title
         id="title2337">B_2096849817_1904_3-&gt;B_2096849817_1904_5</title>
      <path
         style="fill:none;stroke:#006400"
         inkscape:connector-curvature="0"
         d="m 1682.34,-2579.16 c 17.01,23 40.95,55.36 59.35,80.25"
         id="path2339" />
      <polygon
         style="fill:#006400;stroke:#006400"
         points="1744.57,-2500.91 1744.57,-2500.91 1747.71,-2490.78 1738.95,-2496.74 "
         id="polygon2341" />
      <text
         style="font-size:14px;text-anchor:middle;font-family:'Times,serif'"
         x="1752"
         y="-2531.3"
         font-size="14.00"
         id="text2343">3275666</text>
    </g>
    <g
       transform="matrix(0.75231281,0,0,0.75231281,-1103.9102,2568.9703)"
       id="node136"
       class="node">
      <title
         id="title2346">B_2096849817_1904_9</title>
      <ellipse
         style="fill:#cccccc;stroke:#000000;stroke-width:4"
         sodipodi:ry="18"
         sodipodi:rx="38.021198"
         sodipodi:cy="-2039"
         sodipodi:cx="1698"
         cx="1698"
         cy="-2039"
         rx="38.021198"
         ry="18"
         id="ellipse2348"
         d="m 1736.0212,-2039 c 0,9.9411 -17.0227,18 -38.0212,18 -20.9985,0 -38.0212,-8.0589 -38.0212,-18 0,-9.9411 17.0227,-18 38.0212,-18 20.9985,0 38.0212,8.0589 38.0212,18 z" />
      <text
         style="font-size:14px;text-anchor:start;font-family:'Times,serif'"
         x="1677"
         y="-2036.3"
         font-size="14.00"
         id="text2350">_exit_</text>
    </g>
    <g
       transform="matrix(0.75231281,0,0,0.75231281,-1103.9102,2568.9703)"
       id="edge149"
       class="edge">
      <title
         id="title2353">B_2096849817_1904_8-&gt;B_2096849817_1904_9</title>
      <path
         style="fill:none;stroke:#006400"
         inkscape:connector-curvature="0"
         d="m 1647.33,-2146.5 c 9.99,21.01 26.84,56.42 38.34,80.59"
         id="path2355" />
      <polygon
         style="fill:#006400;stroke:#006400"
         points="1688.96,-2067.16 1688.96,-2067.16 1690.09,-2056.62 1682.63,-2064.15 "
         id="polygon2357" />
      <text
         style="font-size:14px;text-anchor:middle;font-family:'Times,serif'"
         x="1697"
         y="-2098.3"
         font-size="14.00"
         id="text2359">9826627</text>
    </g>
    <g
       transform="matrix(0.75231281,0,0,0.75231281,-1103.9102,2568.9703)"
       id="edge139"
       class="edge">
      <title
         id="title2362">B_2096849817_1904_4-&gt;B_2096849817_1904_8</title>
      <path
         style="fill:none;stroke:#006400"
         inkscape:connector-curvature="0"
         d="m 1622.32,-2368.18 c -2.58,5.64 -5.01,12.02 -6.32,18.18 -11.65,54.89 3.23,120.33 13.91,156.51"
         id="path2364" />
      <polygon
         style="fill:#006400;stroke:#006400"
         points="1633.33,-2194.26 1633.33,-2194.26 1632.92,-2183.67 1626.64,-2192.21 "
         id="polygon2366" />
      <text
         style="font-size:14px;text-anchor:middle;font-family:'Times,serif'"
         x="1640"
         y="-2309.3"
         font-size="14.00"
         id="text2368">3275577</text>
    </g>
    <g
       transform="matrix(0.75231281,0,0,0.75231281,-1103.9102,2568.9703)"
       id="node131"
       class="node">
      <title
         id="title2371">B_2096849817_1904_6</title>
      <polygon
         style="fill:#98fb98;stroke:#98fb98"
         points="1685.75,-2294.5 1770.25,-2294.5 1782.25,-2306.5 1782.25,-2319.5 1770.25,-2331.5 1770.25,-2331.5 1685.75,-2331.5 1673.75,-2319.5 1673.75,-2306.5 "
         id="polygon2373" />
      <path
         style="fill:#98fb98;stroke:#98fb98"
         inkscape:connector-curvature="0"
         d="m 1685.75,-2331.5 c -6,0 -12,6 -12,12"
         id="path2375" />
      <path
         style="fill:#98fb98;stroke:#98fb98"
         inkscape:connector-curvature="0"
         d="m 1673.75,-2306.5 c 0,6 6,12 12,12"
         id="path2377" />
      <path
         style="fill:#98fb98;stroke:#98fb98"
         inkscape:connector-curvature="0"
         d="m 1770.25,-2294.5 c 6,0 12,-6 12,-12"
         id="path2379" />
      <path
         style="fill:#98fb98;stroke:#98fb98"
         inkscape:connector-curvature="0"
         d="m 1782.25,-2319.5 c 0,-6 -6,-12 -12,-12"
         id="path2381" />
      <polyline
         style="fill:none;stroke:#006400"
         points="1770.25,-2331.5 1685.75,-2331.5 "
         id="polyline2383" />
      <path
         style="fill:none;stroke:#006400"
         inkscape:connector-curvature="0"
         d="m 1685.75,-2331.5 c -6,0 -12,6 -12,12"
         id="path2385" />
      <polyline
         style="fill:none;stroke:#006400"
         points="1673.75,-2319.5 1673.75,-2306.5 "
         id="polyline2387" />
      <path
         style="fill:none;stroke:#006400"
         inkscape:connector-curvature="0"
         d="m 1673.75,-2306.5 c 0,6 6,12 12,12"
         id="path2389" />
      <polyline
         style="fill:none;stroke:#006400"
         points="1685.75,-2294.5 1770.25,-2294.5 "
         id="polyline2391" />
      <path
         style="fill:none;stroke:#006400"
         inkscape:connector-curvature="0"
         d="m 1770.25,-2294.5 c 6,0 12,-6 12,-12"
         id="path2393" />
      <polyline
         style="fill:none;stroke:#006400"
         points="1782.25,-2306.5 1782.25,-2319.5 "
         id="polyline2395" />
      <path
         style="fill:none;stroke:#006400"
         inkscape:connector-curvature="0"
         d="m 1782.25,-2319.5 c 0,-6 -6,-12 -12,-12"
         id="path2397" />
      <text
         style="font-size:14px;text-anchor:start;font-family:'Times,serif'"
         x="1697.5"
         y="-2317.3"
         font-size="14.00"
         id="text2399"> Line: 110</text>
      <text
         style="font-size:14px;text-anchor:start;font-family:'Times,serif'"
         x="1682"
         y="-2303.3"
         font-size="14.00"
         id="text2401">Count: 3275666</text>
    </g>
    <g
       transform="matrix(0.75231281,0,0,0.75231281,-1103.9102,2568.9703)"
       id="edge141"
       class="edge">
      <title
         id="title2404">B_2096849817_1904_5-&gt;B_2096849817_1904_6</title>
      <path
         style="fill:none;stroke:#006400"
         inkscape:connector-curvature="0"
         d="m 1751.14,-2429.94 c -3.87,7.6 -7.57,15.89 -10.14,23.94 -6.69,20.94 -9.94,45.65 -11.52,64.19"
         id="path2406" />
      <polygon
         style="fill:#006400;stroke:#006400"
         points="1732.96,-2341.4 1732.96,-2341.4 1728.73,-2331.69 1725.98,-2341.92 "
         id="polygon2408" />
      <text
         style="font-size:14px;text-anchor:middle;font-family:'Times,serif'"
         x="1765"
         y="-2383.3"
         font-size="14.00"
         id="text2410">3275666</text>
    </g>
    <g
       transform="matrix(0.75231281,0,0,0.75231281,-1103.9102,2568.9703)"
       id="node133"
       class="node">
      <title
         id="title2413">B_2096849817_1904_7</title>
      <polygon
         style="fill:#ffc1c1;stroke:#ffc1c1;stroke-width:4"
         points="1736,-2220.5 1826,-2220.5 1838,-2232.5 1838,-2245.5 1826,-2257.5 1826,-2257.5 1736,-2257.5 1724,-2245.5 1724,-2232.5 "
         id="polygon2415" />
      <path
         style="fill:#ffc1c1;stroke:#ffc1c1;stroke-width:4"
         inkscape:connector-curvature="0"
         d="m 1736,-2257.5 c -6,0 -12,6 -12,12"
         id="path2417" />
      <path
         style="fill:#ffc1c1;stroke:#ffc1c1;stroke-width:4"
         inkscape:connector-curvature="0"
         d="m 1724,-2232.5 c 0,6 6,12 12,12"
         id="path2419" />
      <path
         style="fill:#ffc1c1;stroke:#ffc1c1;stroke-width:4"
         inkscape:connector-curvature="0"
         d="m 1826,-2220.5 c 6,0 12,-6 12,-12"
         id="path2421" />
      <path
         style="fill:#ffc1c1;stroke:#ffc1c1;stroke-width:4"
         inkscape:connector-curvature="0"
         d="m 1838,-2245.5 c 0,-6 -6,-12 -12,-12"
         id="path2423" />
      <polyline
         style="fill:none;stroke:#cd0000;stroke-width:4"
         points="1826,-2257.5 1736,-2257.5 "
         id="polyline2425" />
      <path
         style="fill:none;stroke:#cd0000;stroke-width:4"
         inkscape:connector-curvature="0"
         d="m 1736,-2257.5 c -6,0 -12,6 -12,12"
         id="path2427" />
      <polyline
         style="fill:none;stroke:#cd0000;stroke-width:4"
         points="1724,-2245.5 1724,-2232.5 "
         id="polyline2429" />
      <path
         style="fill:none;stroke:#cd0000;stroke-width:4"
         inkscape:connector-curvature="0"
         d="m 1724,-2232.5 c 0,6 6,12 12,12"
         id="path2431" />
      <polyline
         style="fill:none;stroke:#cd0000;stroke-width:4"
         points="1736,-2220.5 1826,-2220.5 "
         id="polyline2433" />
      <path
         style="fill:none;stroke:#cd0000;stroke-width:4"
         inkscape:connector-curvature="0"
         d="m 1826,-2220.5 c 6,0 12,-6 12,-12"
         id="path2435" />
      <polyline
         style="fill:none;stroke:#cd0000;stroke-width:4"
         points="1838,-2232.5 1838,-2245.5 "
         id="polyline2437" />
      <path
         style="fill:none;stroke:#cd0000;stroke-width:4"
         inkscape:connector-curvature="0"
         d="m 1838,-2245.5 c 0,-6 -6,-12 -12,-12"
         id="path2439" />
      <text
         style="font-size:14px;text-anchor:start;font-family:'Times,serif'"
         x="1732.5"
         y="-2243.3"
         font-size="14.00"
         id="text2441"> Lines: 111...112</text>
      <text
         style="font-size:14px;text-anchor:start;font-family:'Times,serif'"
         x="1755"
         y="-2229.3"
         font-size="14.00"
         id="text2443">Count: 0</text>
    </g>
    <g
       transform="matrix(0.75231281,0,0,0.75231281,-1103.9102,2568.9703)"
       id="edge143"
       class="edge">
      <title
         id="title2446">B_2096849817_1904_5-&gt;B_2096849817_1904_7</title>
      <path
         style="fill:none;stroke:#cd0000;stroke-width:2"
         inkscape:connector-curvature="0"
         d="m 1782.57,-2428.51 c 2.59,7.27 4.96,15.06 6.43,22.51 11.21,56.69 9.8,72.74 2,130 -0.37,2.74 -0.9,5.56 -1.52,8.37"
         id="path2448" />
      <polygon
         style="fill:#cd0000;stroke:#cd0000"
         points="1792.82,-2266.57 1792.82,-2266.57 1786.96,-2257.75 1786.04,-2268.3 "
         id="polygon2450" />
      <text
         style="font-size:14px;text-anchor:middle;font-family:'Times,serif'"
         x="1798.5"
         y="-2383.3"
         font-size="14.00"
         id="text2452">0</text>
    </g>
    <g
       transform="matrix(0.75231281,0,0,0.75231281,-1103.9102,2568.9703)"
       id="edge145"
       class="edge">
      <title
         id="title2455">B_2096849817_1904_6-&gt;B_2096849817_1904_8</title>
      <path
         style="fill:none;stroke:#006400"
         inkscape:connector-curvature="0"
         d="m 1702.1,-2294.33 c -12.19,9.5 -26.01,22.17 -35.1,36.33 -12.56,19.56 -19.74,45.05 -23.68,64.24"
         id="path2457" />
      <polygon
         style="fill:#006400;stroke:#006400"
         points="1646.74,-2193 1646.74,-2193 1641.46,-2183.82 1639.86,-2194.3 "
         id="polygon2459" />
      <text
         style="font-size:14px;text-anchor:middle;font-family:'Times,serif'"
         x="1691"
         y="-2235.3"
         font-size="14.00"
         id="text2461">3275666</text>
    </g>
    <g
       transform="matrix(0.75231281,0,0,0.75231281,-1103.9102,2568.9703)"
       id="edge147"
       class="edge">
      <title
         id="title2464">B_2096849817_1904_7-&gt;B_2096849817_1904_9</title>
      <path
         style="fill:none;stroke:#cd0000;stroke-width:2"
         inkscape:connector-curvature="0"
         d="m 1774.79,-2220.5 c -9.83,27.32 -29.9,81.62 -49.79,126.5 -4.12,9.29 -8.99,19.29 -13.45,28.12"
         id="path2466" />
      <polygon
         style="fill:#cd0000;stroke:#cd0000"
         points="1714.59,-2064.14 1714.59,-2064.14 1706.92,-2056.83 1708.36,-2067.33 "
         id="polygon2468" />
      <text
         style="font-size:14px;text-anchor:middle;font-family:'Times,serif'"
         x="1770.5"
         y="-2161.3"
         font-size="14.00"
         id="text2470">0</text>
    </g>
    <text
       xml:space="preserve"
       style="font-size:16px;font-style:normal;font-variant:normal;font-weight:normal;font-stretch:normal;line-height:125%;letter-spacing:0px;word-spacing:0px;fill:#000000;fill-opacity:1;stroke:none;font-family:DejaVu Sans Mono;-inkscape-font-specification:DejaVu Sans Mono"
       x="221.6981"
       y="36.851891"
       id="text6954"
       sodipodi:linespacing="125%"
       transform="translate(0,414.56559)"><tspan
         sodipodi:role="line"
         id="tspan6956"
         x="221.6981"
         y="36.851891"><tspan
   style="fill:#0000ff"
   id="tspan6978">107</tspan> inline char getnxt(char a){</tspan><tspan
         sodipodi:role="line"
         x="221.6981"
         y="56.851891"
         id="tspan6958"><tspan
   style="fill:#0000ff"
   id="tspan6976">108</tspan>    if(a=='S')return 'R';</tspan><tspan
         sodipodi:role="line"
         x="221.6981"
         y="76.851891"
         id="tspan6960"><tspan
   style="fill:#0000ff"
   id="tspan6974">109</tspan>    if(a=='R')return 'P';</tspan><tspan
         sodipodi:role="line"
         x="221.6981"
         y="96.851891"
         id="tspan6962"><tspan
   style="fill:#0000ff"
   id="tspan6972">110</tspan>    if(a=='P')return 'S';</tspan><tspan
         sodipodi:role="line"
         x="221.6981"
         y="116.85189"
         id="tspan6964"><tspan
   style="fill:#0000ff"
   id="tspan6970">111</tspan>    RE;</tspan><tspan
         sodipodi:role="line"
         x="221.6981"
         y="136.8519"
         id="tspan6966"><tspan
   style="fill:#0000ff"
   id="tspan6968">112</tspan> }</tspan></text>
    <g
       transform="matrix(1.25,0,0,1.25,-893.16038,4656.9363)"
       id="node2"
       class="node">
      <title
         id="title10">key_text</title>
      <polygon
         points="931.75,-2898.5 1128.25,-2898.5 1128.25,-2977.5 1128.25,-2977.5 931.75,-2977.5 "
         id="polygon12"
         style="fill:none;stroke:#000000" />
      <text
         x="970"
         y="-2963.3"
         font-size="14.00"
         id="text14"
         style="font-size:14px;text-anchor:start;font-family:'Times,serif'" />
      <text
         x="974"
         y="-2963.3"
         font-size="14.00"
         id="text16"
         style="font-size:14px;text-anchor:start;fill:#006400;font-family:'Times,serif'">Executed arc / block</text>
      <text
         x="1086"
         y="-2963.3"
         font-size="14.00"
         id="text18"
         style="font-size:14px;text-anchor:start;font-family:'Times,serif'" />
      <text
         x="957"
         y="-2949.3"
         font-size="14.00"
         id="text20"
         style="font-size:14px;text-anchor:start;font-family:'Times,serif'" />
      <text
         x="961"
         y="-2949.3"
         font-size="14.00"
         id="text22"
         style="font-size:14px;text-anchor:start;fill:#cd0000;font-family:'Times,serif'">Non-executed arc / block</text>
      <text
         x="1099"
         y="-2949.3"
         font-size="14.00"
         id="text24"
         style="font-size:14px;text-anchor:start;font-family:'Times,serif'" />
      <text
         x="956.5"
         y="-2935.3"
         font-size="14.00"
         id="text26"
         style="font-size:14px;text-anchor:start;font-family:'Times,serif'" />
      <text
         x="960.5"
         y="-2935.3"
         font-size="14.00"
         id="text28"
         style="font-size:14px;text-anchor:start;fill:#ffc125;font-family:'Times,serif'">Partially executed branch</text>
      <text
         x="1099.5"
         y="-2935.3"
         font-size="14.00"
         id="text30"
         style="font-size:14px;text-anchor:start;font-family:'Times,serif'" />
      <text
         x="940"
         y="-2921.3"
         font-size="14.00"
         id="text32"
         style="font-size:14px;text-anchor:start;font-family:'Times,serif'">Solid line = Normal arc / block</text>
      <text
         x="942"
         y="-2907.3"
         font-size="14.00"
         id="text34"
         style="font-size:14px;text-anchor:start;font-family:'Times,serif'">Dashed line = Fake arc / block</text>
    </g>
  </g>
</svg>
